<svg xmlns="http://www.w3.org/2000/svg" width="1220" height="950" viewBox="0 0 1220 950" role="img" aria-label="Why Process-Only Flamegraphs Collapse Intent">
  <rect width="1220" height="950" fill="#fbfcf8"/>
  <rect x="18" y="18" width="1184" height="914" rx="8" fill="#ffffff" stroke="#d8dfd3"/>
  <text x="38" y="54" font-family="Inter, Arial, sans-serif" font-size="24" font-weight="700" fill="#17212b">Why Process-Only Flamegraphs Collapse Intent</text>
  <text x="38" y="80" font-family="Inter, Arial, sans-serif" font-size="13" fill="#5c6670">R211 examples where one process/effect bucket mixes many prompt tags.</text>
<text x="38" y="104" font-family="Inter, Arial, sans-serif" font-size="12" fill="#5c6670">bar length = bucket weight; red segment = weight not explained by the top prompt tag</text>
<text x="42.0" y="143.0" font-family="Inter, Arial, sans-serif" font-size="12" font-weight="400" fill="#17212b"><tspan x="42.0" dy="0">process:ps;effect:process;status:ok</tspan></text>
<rect x="330" y="128" width="560" height="22" rx="4" fill="#eef1ed"/>
<rect x="330" y="128" width="40.58" height="22" rx="4" fill="#2f6f9f" opacity="0.85"/>
<rect x="330" y="128" width="31.21" height="22" rx="4" fill="#c2413b" opacity="0.85"/>
<text x="908" y="144" font-family="Inter, Arial, sans-serif" font-size="12" fill="#17212b">732/952 ambiguous, 43 prompt tags</text>
<text x="330" y="170" font-family="Inter, Arial, sans-serif" font-size="11" fill="#5c6670">refactor=220; analyze=217; review=129; design=120; test=98; trace=17; debug=15; serve=12; testcodexrun=12; benchm...</text>
<text x="42.0" y="207.0" font-family="Inter, Arial, sans-serif" font-size="12" font-weight="400" fill="#17212b"><tspan x="42.0" dy="0">process:git;effect:read;status:ok</tspan></text>
<rect x="330" y="192" width="560" height="22" rx="4" fill="#eef1ed"/>
<rect x="330" y="192" width="227.86" height="22" rx="4" fill="#2f6f9f" opacity="0.85"/>
<rect x="330" y="192" width="170.95" height="22" rx="4" fill="#c2413b" opacity="0.85"/>
<text x="908" y="208" font-family="Inter, Arial, sans-serif" font-size="12" fill="#17212b">4010/5345 ambiguous, 116 prompt tags</text>
<text x="330" y="234" font-family="Inter, Arial, sans-serif" font-size="11" fill="#5c6670">review=1335; refactor=1239; design=389; research=321; analyze=316; test=242; explain=185; docs=122; commitlog=109...</text>
<text x="42.0" y="271.0" font-family="Inter, Arial, sans-serif" font-size="12" font-weight="400" fill="#17212b"><tspan x="42.0" dy="0">process:sed;effect:read;status:ok;pa</tspan></text>
<rect x="330" y="256" width="560" height="22" rx="4" fill="#eef1ed"/>
<rect x="330" y="256" width="36.79" height="22" rx="4" fill="#2f6f9f" opacity="0.85"/>
<rect x="330" y="256" width="25.32" height="22" rx="4" fill="#c2413b" opacity="0.85"/>
<text x="908" y="272" font-family="Inter, Arial, sans-serif" font-size="12" fill="#17212b">594/863 ambiguous, 26 prompt tags</text>
<text x="330" y="298" font-family="Inter, Arial, sans-serif" font-size="11" fill="#5c6670">review=269; refactor=123; design=97; test=94; designcodex=70; feedback=38; docx=28; research=27; uxdesigncodx=24;...</text>
<text x="42.0" y="335.0" font-family="Inter, Arial, sans-serif" font-size="12" font-weight="400" fill="#17212b"><tspan x="42.0" dy="0">process:cargo;effect:test;status:ok</tspan></text>
<rect x="330" y="320" width="560" height="22" rx="4" fill="#eef1ed"/>
<rect x="330" y="320" width="85.26" height="22" rx="4" fill="#2f6f9f" opacity="0.85"/>
<rect x="330" y="320" width="58.02" height="22" rx="4" fill="#c2413b" opacity="0.85"/>
<text x="908" y="336" font-family="Inter, Arial, sans-serif" font-size="12" fill="#17212b">1361/2000 ambiguous, 48 prompt tags</text>
<text x="330" y="362" font-family="Inter, Arial, sans-serif" font-size="11" fill="#5c6670">refactor=639; review=345; research=213; commitlog=146; explain=124; test=79; design=55; docs=37; trace=35; meta=25</text>
<text x="42.0" y="399.0" font-family="Inter, Arial, sans-serif" font-size="12" font-weight="400" fill="#17212b"><tspan x="42.0" dy="0">process:find;effect:read;status:ok;p</tspan></text>
<rect x="330" y="384" width="560" height="22" rx="4" fill="#eef1ed"/>
<rect x="330" y="384" width="38.28" height="22" rx="4" fill="#2f6f9f" opacity="0.85"/>
<rect x="330" y="384" width="24.51" height="22" rx="4" fill="#c2413b" opacity="0.85"/>
<text x="908" y="400" font-family="Inter, Arial, sans-serif" font-size="12" fill="#17212b">575/898 ambiguous, 17 prompt tags</text>
<text x="330" y="426" font-family="Inter, Arial, sans-serif" font-size="11" fill="#5c6670">refactor=323; design=160; test=131; review=90; benchmark=77; analyze=65; research=12; compare=9; configyaml=8; do...</text>
<text x="42.0" y="463.0" font-family="Inter, Arial, sans-serif" font-size="12" font-weight="400" fill="#17212b"><tspan x="42.0" dy="0">process:rg;effect:read;status:ok;pat</tspan></text>
<rect x="330" y="448" width="560" height="22" rx="4" fill="#eef1ed"/>
<rect x="330" y="448" width="62.16" height="22" rx="4" fill="#2f6f9f" opacity="0.85"/>
<rect x="330" y="448" width="39.35" height="22" rx="4" fill="#c2413b" opacity="0.85"/>
<text x="908" y="464" font-family="Inter, Arial, sans-serif" font-size="12" fill="#17212b">923/1458 ambiguous, 55 prompt tags</text>
<text x="330" y="490" font-family="Inter, Arial, sans-serif" font-size="11" fill="#5c6670">review=535; refactor=436; designcodex=99; design=82; test=46; designfix=35; analyze=29; trace=18; docs=13; codex=13</text>
<text x="42.0" y="527.0" font-family="Inter, Arial, sans-serif" font-size="12" font-weight="400" fill="#17212b"><tspan x="42.0" dy="0">process:python3;effect:process;statu</tspan></text>
<rect x="330" y="512" width="560" height="22" rx="4" fill="#eef1ed"/>
<rect x="330" y="512" width="77.97" height="22" rx="4" fill="#2f6f9f" opacity="0.85"/>
<rect x="330" y="512" width="47.36" height="22" rx="4" fill="#c2413b" opacity="0.85"/>
<text x="908" y="528" font-family="Inter, Arial, sans-serif" font-size="12" fill="#17212b">1111/1829 ambiguous, 70 prompt tags</text>
<text x="330" y="554" font-family="Inter, Arial, sans-serif" font-size="11" fill="#5c6670">refactor=718; review=220; analyze=205; test=138; research=102; ignored=41; design=37; benchmark=31; docs=27; comp...</text>
<text x="42.0" y="591.0" font-family="Inter, Arial, sans-serif" font-size="12" font-weight="400" fill="#17212b"><tspan x="42.0" dy="0">process:rg;effect:read;status:ok;pat</tspan></text>
<rect x="330" y="576" width="560" height="22" rx="4" fill="#eef1ed"/>
<rect x="330" y="576" width="43.61" height="22" rx="4" fill="#2f6f9f" opacity="0.85"/>
<rect x="330" y="576" width="26.13" height="22" rx="4" fill="#c2413b" opacity="0.85"/>
<text x="908" y="592" font-family="Inter, Arial, sans-serif" font-size="12" fill="#17212b">613/1023 ambiguous, 14 prompt tags</text>
<text x="330" y="618" font-family="Inter, Arial, sans-serif" font-size="11" fill="#5c6670">refactor=410; design=209; review=167; benchmark=116; test=73; analyze=22; compare=11; research=5; trace=4; ignored=2</text>
<text x="42.0" y="655.0" font-family="Inter, Arial, sans-serif" font-size="12" font-weight="400" fill="#17212b"><tspan x="42.0" dy="0">process:tool:tool;effect:process;sta</tspan></text>
<rect x="330" y="640" width="560" height="22" rx="4" fill="#eef1ed"/>
<rect x="330" y="640" width="560.00" height="22" rx="4" fill="#2f6f9f" opacity="0.85"/>
<rect x="330" y="640" width="290.74" height="22" rx="4" fill="#c2413b" opacity="0.85"/>
<text x="908" y="656" font-family="Inter, Arial, sans-serif" font-size="12" fill="#17212b">6820/13136 ambiguous, 93 prompt tags</text>
<text x="330" y="682" font-family="Inter, Arial, sans-serif" font-size="11" fill="#5c6670">refactor=6316; review=1817; design=1443; analyze=797; test=597; benchmark=251; ignored=206; debug=185; research=1...</text>
<text x="42.0" y="719.0" font-family="Inter, Arial, sans-serif" font-size="12" font-weight="400" fill="#17212b"><tspan x="42.0" dy="0">process:sed;effect:read;status:ok;pa</tspan></text>
<rect x="330" y="704" width="560" height="22" rx="4" fill="#eef1ed"/>
<rect x="330" y="704" width="81.72" height="22" rx="4" fill="#2f6f9f" opacity="0.85"/>
<rect x="330" y="704" width="42.25" height="22" rx="4" fill="#c2413b" opacity="0.85"/>
<text x="908" y="720" font-family="Inter, Arial, sans-serif" font-size="12" fill="#17212b">991/1917 ambiguous, 8 prompt tags</text>
<text x="330" y="746" font-family="Inter, Arial, sans-serif" font-size="11" fill="#5c6670">refactor=926; design=427; benchmark=332; review=161; test=48; analyze=18; compare=3; validate=2</text>
<text x="42.0" y="783.0" font-family="Inter, Arial, sans-serif" font-size="12" font-weight="400" fill="#17212b"><tspan x="42.0" dy="0">process:sed;effect:read;status:ok;pa</tspan></text>
<rect x="330" y="768" width="560" height="22" rx="4" fill="#eef1ed"/>
<rect x="330" y="768" width="60.54" height="22" rx="4" fill="#2f6f9f" opacity="0.85"/>
<rect x="330" y="768" width="29.76" height="22" rx="4" fill="#c2413b" opacity="0.85"/>
<text x="908" y="784" font-family="Inter, Arial, sans-serif" font-size="12" fill="#17212b">698/1420 ambiguous, 8 prompt tags</text>
<text x="330" y="810" font-family="Inter, Arial, sans-serif" font-size="11" fill="#5c6670">refactor=722; benchmark=320; design=310; review=63; proofing=2; compare=1; evaluate=1; test=1</text>
<text x="42.0" y="847.0" font-family="Inter, Arial, sans-serif" font-size="12" font-weight="400" fill="#17212b"><tspan x="42.0" dy="0">process:rg;effect:read;status:ok;pat</tspan></text>
<rect x="330" y="832" width="560" height="22" rx="4" fill="#eef1ed"/>
<rect x="330" y="832" width="54.40" height="22" rx="4" fill="#2f6f9f" opacity="0.85"/>
<rect x="330" y="832" width="25.96" height="22" rx="4" fill="#c2413b" opacity="0.85"/>
<text x="908" y="848" font-family="Inter, Arial, sans-serif" font-size="12" fill="#17212b">609/1276 ambiguous, 8 prompt tags</text>
<text x="330" y="874" font-family="Inter, Arial, sans-serif" font-size="11" fill="#5c6670">refactor=667; design=245; benchmark=195; review=134; test=18; analyze=8; validate=6; compare=3</text>
</svg>
