<svg xmlns="http://www.w3.org/2000/svg" width="1180" height="590" viewBox="0 0 1180 590" role="img" aria-label="Long-Tail Control Gates">
  <rect width="1180" height="590" fill="#fbfcf8"/>
  <rect x="18" y="18" width="1144" height="554" rx="8" fill="#ffffff" stroke="#d8dfd3"/>
  <text x="38" y="54" font-family="Inter, Arial, sans-serif" font-size="24" font-weight="700" fill="#17212b">Long-Tail Control Gates</text>
  <text x="38" y="80" font-family="Inter, Arial, sans-serif" font-size="13" fill="#5c6670">R214 automatic policy checks. Failed gates mean review is required before aggressive compaction.</text>
<text x="42.0" y="137.0" font-family="Inter, Arial, sans-serif" font-size="12" font-weight="400" fill="#17212b"><tspan x="42.0" dy="0">overall long tail budget</tspan></text>
<rect x="330" y="122" width="430" height="22" rx="4" fill="#eef1ed"/>
<rect x="330" y="122" width="250.26" height="22" rx="4" fill="#2f7d55" opacity="0.85"/>
<line x1="760.00" y1="118" x2="760.00" y2="150" stroke="#17212b" stroke-dasharray="3 3"/>
<text x="780" y="138" font-family="Inter, Arial, sans-serif" font-size="12" fill="#17212b">actual 1.746 &lt;= 3.0 -&gt; pass</text>
<text x="330" y="164" font-family="Inter, Arial, sans-serif" font-size="11" fill="#5c6670">default display can stay alias-only with raw drilldown</text>
<text x="42.0" y="207.0" font-family="Inter, Arial, sans-serif" font-size="12" font-weight="400" fill="#17212b"><tspan x="42.0" dy="0">overall review budget</tspan></text>
<rect x="330" y="192" width="430" height="22" rx="4" fill="#eef1ed"/>
<rect x="330" y="192" width="414.09" height="22" rx="4" fill="#2f7d55" opacity="0.85"/>
<line x1="760.00" y1="188" x2="760.00" y2="220" stroke="#17212b" stroke-dasharray="3 3"/>
<text x="780" y="208" font-family="Inter, Arial, sans-serif" font-size="12" fill="#17212b">actual 1.926 &lt;= 2.0 -&gt; pass</text>
<text x="330" y="234" font-family="Inter, Arial, sans-serif" font-size="11" fill="#5c6670">pending overlay is acceptable as a default warning surface</text>
<text x="42.0" y="277.0" font-family="Inter, Arial, sans-serif" font-size="12" font-weight="400" fill="#17212b"><tspan x="42.0" dy="0">prompt review budget</tspan></text>
<rect x="330" y="262" width="430" height="22" rx="4" fill="#eef1ed"/>
<rect x="330" y="262" width="430.00" height="22" rx="4" fill="#c2413b" opacity="0.85"/>
<line x1="725.95" y1="258" x2="725.95" y2="290" stroke="#17212b" stroke-dasharray="3 3"/>
<text x="780" y="278" font-family="Inter, Arial, sans-serif" font-size="12" fill="#17212b">actual 3.258 &lt;= 3.0 -&gt; fail</text>
<text x="330" y="304" font-family="Inter, Arial, sans-serif" font-size="11" fill="#5c6670">prioritize prompt-level review before promoting candidates</text>
<text x="42.0" y="347.0" font-family="Inter, Arial, sans-serif" font-size="12" font-weight="400" fill="#17212b"><tspan x="42.0" dy="0">head stability under high tail</tspan><tspan x="42.0" dy="16">threshold</tspan></text>
<rect x="330" y="332" width="430" height="22" rx="4" fill="#eef1ed"/>
<rect x="330" y="332" width="350.54" height="22" rx="4" fill="#c2413b" opacity="0.85"/>
<line x1="760.00" y1="328" x2="760.00" y2="360" stroke="#17212b" stroke-dasharray="3 3"/>
<text x="780" y="348" font-family="Inter, Arial, sans-serif" font-size="12" fill="#17212b">actual 65.217 &gt;= 80.0 -&gt; fail</text>
<text x="330" y="374" font-family="Inter, Arial, sans-serif" font-size="11" fill="#5c6670">do not raise tail thresholds automatically; require review</text>
<text x="42.0" y="417.0" font-family="Inter, Arial, sans-serif" font-size="12" font-weight="400" fill="#17212b"><tspan x="42.0" dy="0">hidden other bucket</tspan></text>
<rect x="330" y="402" width="430" height="22" rx="4" fill="#eef1ed"/>
<rect x="330" y="402" width="0.00" height="22" rx="4" fill="#2f7d55" opacity="0.85"/>
<line x1="330.00" y1="398" x2="330.00" y2="430" stroke="#17212b" stroke-dasharray="3 3"/>
<text x="780" y="418" font-family="Inter, Arial, sans-serif" font-size="12" fill="#17212b">actual 0.0 &lt;= 0.0 -&gt; pass</text>
<text x="330" y="444" font-family="Inter, Arial, sans-serif" font-size="11" fill="#5c6670">no hidden other bucket is present</text>
<text x="42.0" y="487.0" font-family="Inter, Arial, sans-serif" font-size="12" font-weight="400" fill="#17212b"><tspan x="42.0" dy="0">display drilldown membership</tspan></text>
<rect x="330" y="472" width="430" height="22" rx="4" fill="#eef1ed"/>
<rect x="330" y="472" width="430.00" height="22" rx="4" fill="#2f7d55" opacity="0.85"/>
<line x1="760.00" y1="468" x2="760.00" y2="500" stroke="#17212b" stroke-dasharray="3 3"/>
<text x="780" y="488" font-family="Inter, Arial, sans-serif" font-size="12" fill="#17212b">actual 1.0 &gt;= 1.0 -&gt; pass</text>
<text x="330" y="514" font-family="Inter, Arial, sans-serif" font-size="11" fill="#5c6670">display drilldown matches active map membership</text>
</svg>
