<svg xmlns="http://www.w3.org/2000/svg" width="1120" height="560" viewBox="0 0 1120 560" role="img" aria-label="Exact Lineage Evidence">
  <rect width="1120" height="560" fill="#fbfcf8"/>
  <rect x="18" y="18" width="1084" height="524" rx="8" fill="#ffffff" stroke="#d8dfd3"/>
  <text x="38" y="54" font-family="Inter, Arial, sans-serif" font-size="24" font-weight="700" fill="#17212b">Exact Lineage Evidence</text>
  <text x="38" y="80" font-family="Inter, Arial, sans-serif" font-size="13" fill="#5c6670">R114 command-mode exact lineage is strong; R182 network capture remains partial and motivates R191.</text>
<text x="46.0" y="141.0" font-family="Inter, Arial, sans-serif" font-size="12" font-weight="400" fill="#17212b"><tspan x="46.0" dy="0">R114 precision</tspan></text>
<rect x="266" y="126" width="430" height="22" rx="4" fill="#eef1ed"/>
<rect x="266" y="126" width="430.00" height="22" rx="4" fill="#2f7d55"/>
<text x="710" y="142" font-family="Inter, Arial, sans-serif" font-size="12" fill="#17212b">100%</text>
<text x="266" y="166" font-family="Inter, Arial, sans-serif" font-size="11" fill="#5c6670">1273 TP, 0 FP</text>
<text x="46.0" y="215.0" font-family="Inter, Arial, sans-serif" font-size="12" font-weight="400" fill="#17212b"><tspan x="46.0" dy="0">R114 recall</tspan></text>
<rect x="266" y="200" width="430" height="22" rx="4" fill="#eef1ed"/>
<rect x="266" y="200" width="430.00" height="22" rx="4" fill="#2f7d55"/>
<text x="710" y="216" font-family="Inter, Arial, sans-serif" font-size="12" fill="#17212b">100%</text>
<text x="266" y="240" font-family="Inter, Arial, sans-serif" font-size="11" fill="#5c6670">1273 TP, 0 FN</text>
<text x="46.0" y="289.0" font-family="Inter, Arial, sans-serif" font-size="12" font-weight="400" fill="#17212b"><tspan x="46.0" dy="0">R114 negative joined</tspan></text>
<rect x="266" y="274" width="430" height="22" rx="4" fill="#eef1ed"/>
<rect x="266" y="274" width="0.00" height="22" rx="4" fill="#2f7d55"/>
<text x="710" y="290" font-family="Inter, Arial, sans-serif" font-size="12" fill="#17212b">0</text>
<text x="266" y="314" font-family="Inter, Arial, sans-serif" font-size="11" fill="#5c6670">0/3170</text>
<text x="46.0" y="363.0" font-family="Inter, Arial, sans-serif" font-size="12" font-weight="400" fill="#17212b"><tspan x="46.0" dy="0">R182 joined network</tspan></text>
<rect x="266" y="348" width="430" height="22" rx="4" fill="#eef1ed"/>
<rect x="266" y="348" width="0.00" height="22" rx="4" fill="#c46d2d"/>
<text x="710" y="364" font-family="Inter, Arial, sans-serif" font-size="12" fill="#17212b">0</text>
<text x="266" y="388" font-family="Inter, Arial, sans-serif" font-size="11" fill="#5c6670">None/None network events</text>
<text x="46.0" y="437.0" font-family="Inter, Arial, sans-serif" font-size="12" font-weight="400" fill="#17212b"><tspan x="46.0" dy="0">R182 target-specific network</tspan></text>
<rect x="266" y="422" width="430" height="22" rx="4" fill="#eef1ed"/>
<rect x="266" y="422" width="0.00" height="22" rx="4" fill="#c2413b"/>
<text x="710" y="438" font-family="Inter, Arial, sans-serif" font-size="12" fill="#17212b">0</text>
<text x="266" y="462" font-family="Inter, Arial, sans-serif" font-size="11" fill="#5c6670">None/None target-specific</text>
</svg>
