<svg xmlns="http://www.w3.org/2000/svg" width="1060" height="570" viewBox="0 0 1060 570" role="img" aria-label="Small-Model Tagging Cost">
  <rect width="1060" height="570" fill="#fbfcf8"/>
  <rect x="18" y="18" width="1024" height="534" rx="8" fill="#ffffff" stroke="#d8dfd3"/>
  <text x="38" y="54" font-family="Inter, Arial, sans-serif" font-size="24" font-weight="700" fill="#17212b">Small-Model Tagging Cost</text>
  <text x="38" y="80" font-family="Inter, Arial, sans-serif" font-size="13" fill="#5c6670">R180 local llama.cpp benchmark over 300 redacted fragments x 3 repeats per model.</text>
<text x="54" y="142" font-family="Inter, Arial, sans-serif" font-size="16" font-weight="700" fill="#17212b">0.6b</text>
<text x="150.0" y="139.0" font-family="Inter, Arial, sans-serif" font-size="12" font-weight="400" fill="#17212b"><tspan x="150.0" dy="0">p95 latency</tspan></text>
<rect x="370" y="124" width="300" height="22" rx="4" fill="#eef1ed"/>
<rect x="370" y="124" width="215.62" height="22" rx="4" fill="#2f6f9f"/>
<text x="684" y="140" font-family="Inter, Arial, sans-serif" font-size="12" fill="#17212b">23.0 ms</text>
<text x="150.0" y="177.0" font-family="Inter, Arial, sans-serif" font-size="12" font-weight="400" fill="#17212b"><tspan x="150.0" dy="0">exact stability</tspan></text>
<rect x="370" y="162" width="300" height="22" rx="4" fill="#eef1ed"/>
<rect x="370" y="162" width="299.00" height="22" rx="4" fill="#2f7d55"/>
<text x="684" y="178" font-family="Inter, Arial, sans-serif" font-size="12" fill="#17212b">99.667%</text>
<text x="150.0" y="215.0" font-family="Inter, Arial, sans-serif" font-size="12" font-weight="400" fill="#17212b"><tspan x="150.0" dy="0">valid outputs</tspan></text>
<rect x="370" y="200" width="300" height="22" rx="4" fill="#eef1ed"/>
<rect x="370" y="200" width="300.00" height="22" rx="4" fill="#2f7d55"/>
<text x="684" y="216" font-family="Inter, Arial, sans-serif" font-size="12" fill="#17212b">100.0%</text>
<text x="54" y="254" font-family="Inter, Arial, sans-serif" font-size="16" font-weight="700" fill="#17212b">1.1b</text>
<text x="150.0" y="251.0" font-family="Inter, Arial, sans-serif" font-size="12" font-weight="400" fill="#17212b"><tspan x="150.0" dy="0">p95 latency</tspan></text>
<rect x="370" y="236" width="300" height="22" rx="4" fill="#eef1ed"/>
<rect x="370" y="236" width="168.75" height="22" rx="4" fill="#2f6f9f"/>
<text x="684" y="252" font-family="Inter, Arial, sans-serif" font-size="12" fill="#17212b">18.0 ms</text>
<text x="150.0" y="289.0" font-family="Inter, Arial, sans-serif" font-size="12" font-weight="400" fill="#17212b"><tspan x="150.0" dy="0">exact stability</tspan></text>
<rect x="370" y="274" width="300" height="22" rx="4" fill="#eef1ed"/>
<rect x="370" y="274" width="279.00" height="22" rx="4" fill="#c46d2d"/>
<text x="684" y="290" font-family="Inter, Arial, sans-serif" font-size="12" fill="#17212b">93.0%</text>
<text x="150.0" y="327.0" font-family="Inter, Arial, sans-serif" font-size="12" font-weight="400" fill="#17212b"><tspan x="150.0" dy="0">valid outputs</tspan></text>
<rect x="370" y="312" width="300" height="22" rx="4" fill="#eef1ed"/>
<rect x="370" y="312" width="300.00" height="22" rx="4" fill="#2f7d55"/>
<text x="684" y="328" font-family="Inter, Arial, sans-serif" font-size="12" fill="#17212b">100.0%</text>
<text x="54" y="366" font-family="Inter, Arial, sans-serif" font-size="16" font-weight="700" fill="#17212b">3b</text>
<text x="150.0" y="363.0" font-family="Inter, Arial, sans-serif" font-size="12" font-weight="400" fill="#17212b"><tspan x="150.0" dy="0">p95 latency</tspan></text>
<rect x="370" y="348" width="300" height="22" rx="4" fill="#eef1ed"/>
<rect x="370" y="348" width="300.00" height="22" rx="4" fill="#2f6f9f"/>
<text x="684" y="364" font-family="Inter, Arial, sans-serif" font-size="12" fill="#17212b">32.0 ms</text>
<text x="150.0" y="401.0" font-family="Inter, Arial, sans-serif" font-size="12" font-weight="400" fill="#17212b"><tspan x="150.0" dy="0">exact stability</tspan></text>
<rect x="370" y="386" width="300" height="22" rx="4" fill="#eef1ed"/>
<rect x="370" y="386" width="285.00" height="22" rx="4" fill="#2f7d55"/>
<text x="684" y="402" font-family="Inter, Arial, sans-serif" font-size="12" fill="#17212b">95.0%</text>
<text x="150.0" y="439.0" font-family="Inter, Arial, sans-serif" font-size="12" font-weight="400" fill="#17212b"><tspan x="150.0" dy="0">valid outputs</tspan></text>
<rect x="370" y="424" width="300" height="22" rx="4" fill="#eef1ed"/>
<rect x="370" y="424" width="300.00" height="22" rx="4" fill="#2f7d55"/>
<text x="684" y="440" font-family="Inter, Arial, sans-serif" font-size="12" fill="#17212b">100.0%</text>
</svg>
