<?xml version="1.0" encoding="UTF-8"?>
<svg xmlns="http://www.w3.org/2000/svg" width="1600" height="178" viewBox="0 0 1600 178">
<style>
text{font-family:ui-monospace,SFMono-Regular,Menlo,Consolas,monospace;font-size:11px;fill:#111}
.title{font-size:18px;font-weight:700}
.meta{font-size:12px;fill:#444}
.frame rect{stroke:#fff;stroke-width:.5}
.frame:hover rect{stroke:#000;stroke-width:1}
</style>
<text class="title" x="16" y="24">AgentReward induced task stack with session candidate operation-stack profile</text>
<text class="meta" x="16" y="42">total=729 operations; width is cumulative sample value; hover rectangles for full stack</text>
<g class="frame"><title>task:workarena.servicenow.infeasible-navigate-and-order-loaner-laptop-with-reason-l2
102 (13.99%)</title><rect x="16.000" y="106" width="219.391" height="17" rx="2" ry="2" fill="hsl(86 50% 61%)"/><text x="20.000" y="119">task:workarena.servicenow.inf.</text></g>
<g class="frame"><title>task:workarena.servicenow.infeasible-navigate-and-order-loaner-laptop-with-reason-l2;task:click
60 (8.23%)</title><rect x="16.000" y="88" width="129.053" height="17" rx="2" ry="2" fill="hsl(98 62% 61%)"/><text x="20.000" y="101">task:click</text></g>
<g class="frame"><title>task:workarena.servicenow.infeasible-navigate-and-order-loaner-laptop-with-reason-l2;task:click;task:loop-like
30 (4.12%)</title><rect x="16.000" y="70" width="64.527" height="17" rx="2" ry="2" fill="hsl(341 47% 70%)"/><text x="20.000" y="83">task:lo.</text></g>
<g class="frame"><title>task:workarena.servicenow.infeasible-navigate-and-order-loaner-laptop-with-reason-l2;task:click;task:loop-like;task:single
21 (2.88%)</title><rect x="16.000" y="52" width="45.169" height="17" rx="2" ry="2" fill="hsl(98 46% 67%)"/><text x="20.000" y="65">task.</text></g>
<g class="frame"><title>task:workarena.servicenow.infeasible-navigate-and-order-loaner-laptop-with-reason-l2;task:click;task:loop-like;task:light-repeat
9 (1.23%)</title><rect x="61.169" y="52" width="19.358" height="17" rx="2" ry="2" fill="hsl(188 67% 69%)"/><text x="65.169" y="65"></text></g>
<g class="frame"><title>task:workarena.servicenow.infeasible-navigate-and-order-loaner-laptop-with-reason-l2;task:click;task:none
30 (4.12%)</title><rect x="80.527" y="70" width="64.527" height="17" rx="2" ry="2" fill="hsl(338 67% 68%)"/><text x="84.527" y="83">task:no.</text></g>
<g class="frame"><title>task:workarena.servicenow.infeasible-navigate-and-order-loaner-laptop-with-reason-l2;task:fill
15 (2.06%)</title><rect x="145.053" y="88" width="32.263" height="17" rx="2" ry="2" fill="hsl(64 53% 63%)"/><text x="149.053" y="101"></text></g>
<g class="frame"><title>task:workarena.servicenow.infeasible-navigate-and-order-loaner-laptop-with-reason-l2;task:fill;task:single
8 (1.10%)</title><rect x="145.053" y="70" width="17.207" height="17" rx="2" ry="2" fill="hsl(98 46% 67%)"/><text x="149.053" y="83"></text></g>
<g class="frame"><title>task:workarena.servicenow.infeasible-navigate-and-order-loaner-laptop-with-reason-l2;task:fill;task:same-action-run
6 (0.82%)</title><rect x="162.261" y="70" width="12.905" height="17" rx="2" ry="2" fill="hsl(19 64% 65%)"/><text x="166.261" y="83"></text></g>
<g class="frame"><title>task:workarena.servicenow.infeasible-navigate-and-order-loaner-laptop-with-reason-l2;task:fill;task:light-repeat
1 (0.14%)</title><rect x="175.166" y="70" width="2.151" height="17" rx="2" ry="2" fill="hsl(188 67% 69%)"/><text x="179.166" y="83"></text></g>
<g class="frame"><title>task:workarena.servicenow.infeasible-navigate-and-order-loaner-laptop-with-reason-l2;task:select_option
13 (1.78%)</title><rect x="177.317" y="88" width="27.962" height="17" rx="2" ry="2" fill="hsl(129 65% 70%)"/><text x="181.317" y="101"></text></g>
<g class="frame"><title>task:workarena.servicenow.infeasible-navigate-and-order-loaner-laptop-with-reason-l2;task:select_option;task:none
7 (0.96%)</title><rect x="177.317" y="70" width="15.056" height="17" rx="2" ry="2" fill="hsl(338 67% 68%)"/><text x="181.317" y="83"></text></g>
<g class="frame"><title>task:workarena.servicenow.infeasible-navigate-and-order-loaner-laptop-with-reason-l2;task:select_option;task:loop-like
6 (0.82%)</title><rect x="192.373" y="70" width="12.905" height="17" rx="2" ry="2" fill="hsl(341 47% 70%)"/><text x="196.373" y="83"></text></g>
<g class="frame"><title>task:workarena.servicenow.infeasible-navigate-and-order-loaner-laptop-with-reason-l2;task:send_msg_to_user
12 (1.65%)</title><rect x="205.278" y="88" width="25.811" height="17" rx="2" ry="2" fill="hsl(187 65% 65%)"/><text x="209.278" y="101"></text></g>
<g class="frame"><title>task:workarena.servicenow.infeasible-navigate-and-order-loaner-laptop-with-reason-l2;task:noop
1 (0.14%)</title><rect x="231.089" y="88" width="2.151" height="17" rx="2" ry="2" fill="hsl(19 59% 65%)"/><text x="235.089" y="101"></text></g>
<g class="frame"><title>task:workarena.servicenow.infeasible-navigate-and-order-loaner-laptop-with-reason-l2;task:report_infeasible
1 (0.14%)</title><rect x="233.240" y="88" width="2.151" height="17" rx="2" ry="2" fill="hsl(148 46% 65%)"/><text x="237.240" y="101"></text></g>
<g class="frame"><title>task:workarena.servicenow.infeasible-navigate-and-order-loaner-laptop-l2
100 (13.72%)</title><rect x="235.391" y="106" width="215.089" height="17" rx="2" ry="2" fill="hsl(110 64% 58%)"/><text x="239.391" y="119">task:workarena.servicenow.in.</text></g>
<g class="frame"><title>task:workarena.servicenow.infeasible-navigate-and-order-loaner-laptop-l2;task:click
61 (8.37%)</title><rect x="235.391" y="88" width="131.204" height="17" rx="2" ry="2" fill="hsl(98 62% 61%)"/><text x="239.391" y="101">task:click</text></g>
<g class="frame"><title>task:workarena.servicenow.infeasible-navigate-and-order-loaner-laptop-l2;task:click;task:single
44 (6.04%)</title><rect x="235.391" y="70" width="94.639" height="17" rx="2" ry="2" fill="hsl(98 46% 67%)"/><text x="239.391" y="83">task:single</text></g>
<g class="frame"><title>task:workarena.servicenow.infeasible-navigate-and-order-loaner-laptop-l2;task:click;task:single;task:none
35 (4.80%)</title><rect x="235.391" y="52" width="75.281" height="17" rx="2" ry="2" fill="hsl(338 67% 68%)"/><text x="239.391" y="65">task:none</text></g>
<g class="frame"><title>task:workarena.servicenow.infeasible-navigate-and-order-loaner-laptop-l2;task:click;task:single;task:loop-like
9 (1.23%)</title><rect x="310.672" y="52" width="19.358" height="17" rx="2" ry="2" fill="hsl(341 47% 70%)"/><text x="314.672" y="65"></text></g>
<g class="frame"><title>task:workarena.servicenow.infeasible-navigate-and-order-loaner-laptop-l2;task:click;task:light-repeat
17 (2.33%)</title><rect x="330.030" y="70" width="36.565" height="17" rx="2" ry="2" fill="hsl(188 67% 69%)"/><text x="334.030" y="83">tas.</text></g>
<g class="frame"><title>task:workarena.servicenow.infeasible-navigate-and-order-loaner-laptop-l2;task:send_msg_to_user
18 (2.47%)</title><rect x="366.595" y="88" width="38.716" height="17" rx="2" ry="2" fill="hsl(187 65% 65%)"/><text x="370.595" y="101">tas.</text></g>
<g class="frame"><title>task:workarena.servicenow.infeasible-navigate-and-order-loaner-laptop-l2;task:select_option
11 (1.51%)</title><rect x="405.311" y="88" width="23.660" height="17" rx="2" ry="2" fill="hsl(129 65% 70%)"/><text x="409.311" y="101"></text></g>
<g class="frame"><title>task:workarena.servicenow.infeasible-navigate-and-order-loaner-laptop-l2;task:fill
8 (1.10%)</title><rect x="428.971" y="88" width="17.207" height="17" rx="2" ry="2" fill="hsl(64 53% 63%)"/><text x="432.971" y="101"></text></g>
<g class="frame"><title>task:workarena.servicenow.infeasible-navigate-and-order-loaner-laptop-l2;task:noop
1 (0.14%)</title><rect x="446.178" y="88" width="2.151" height="17" rx="2" ry="2" fill="hsl(19 59% 65%)"/><text x="450.178" y="101"></text></g>
<g class="frame"><title>task:workarena.servicenow.infeasible-navigate-and-order-loaner-laptop-l2;task:report_infeasible
1 (0.14%)</title><rect x="448.329" y="88" width="2.151" height="17" rx="2" ry="2" fill="hsl(148 46% 65%)"/><text x="452.329" y="101"></text></g>
<g class="frame"><title>task:visualwebarena.resized.580
33 (4.53%)</title><rect x="450.480" y="106" width="70.979" height="17" rx="2" ry="2" fill="hsl(325 60% 68%)"/><text x="454.480" y="119">task:vi.</text></g>
<g class="frame"><title>task:visualwebarena.resized.580;task:same-action-run
24 (3.29%)</title><rect x="450.480" y="88" width="51.621" height="17" rx="2" ry="2" fill="hsl(19 64% 65%)"/><text x="454.480" y="101">task:.</text></g>
<g class="frame"><title>task:visualwebarena.resized.580;task:single
7 (0.96%)</title><rect x="502.102" y="88" width="15.056" height="17" rx="2" ry="2" fill="hsl(98 46% 67%)"/><text x="506.102" y="101"></text></g>
<g class="frame"><title>task:visualwebarena.resized.580;task:light-repeat
2 (0.27%)</title><rect x="517.158" y="88" width="4.302" height="17" rx="2" ry="2" fill="hsl(188 67% 69%)"/><text x="521.158" y="101"></text></g>
<g class="frame"><title>task:assistantbench.improved.validation.15
30 (4.12%)</title><rect x="521.460" y="106" width="64.527" height="17" rx="2" ry="2" fill="hsl(288 59% 61%)"/><text x="525.460" y="119">task:as.</text></g>
<g class="frame"><title>task:assistantbench.improved.validation.15;task:single
14 (1.92%)</title><rect x="521.460" y="88" width="30.112" height="17" rx="2" ry="2" fill="hsl(98 46% 67%)"/><text x="525.460" y="101"></text></g>
<g class="frame"><title>task:assistantbench.improved.validation.15;task:light-repeat
8 (1.10%)</title><rect x="551.572" y="88" width="17.207" height="17" rx="2" ry="2" fill="hsl(188 67% 69%)"/><text x="555.572" y="101"></text></g>
<g class="frame"><title>task:assistantbench.improved.validation.15;task:same-action-run
5 (0.69%)</title><rect x="568.779" y="88" width="10.754" height="17" rx="2" ry="2" fill="hsl(19 64% 65%)"/><text x="572.779" y="101"></text></g>
<g class="frame"><title>task:assistantbench.improved.validation.15;task:same-action-window
3 (0.41%)</title><rect x="579.534" y="88" width="6.453" height="17" rx="2" ry="2" fill="hsl(127 49% 59%)"/><text x="583.534" y="101"></text></g>
<g class="frame"><title>task:assistantbench.improved.validation.17
30 (4.12%)</title><rect x="585.986" y="106" width="64.527" height="17" rx="2" ry="2" fill="hsl(42 47% 60%)"/><text x="589.986" y="119">task:as.</text></g>
<g class="frame"><title>task:assistantbench.improved.validation.17;task:go_back
10 (1.37%)</title><rect x="585.986" y="88" width="21.509" height="17" rx="2" ry="2" fill="hsl(205 58% 58%)"/><text x="589.986" y="101"></text></g>
<g class="frame"><title>task:assistantbench.improved.validation.17;task:goto
10 (1.37%)</title><rect x="607.495" y="88" width="21.509" height="17" rx="2" ry="2" fill="hsl(247 50% 65%)"/><text x="611.495" y="101"></text></g>
<g class="frame"><title>task:assistantbench.improved.validation.17;task:click
9 (1.23%)</title><rect x="629.004" y="88" width="19.358" height="17" rx="2" ry="2" fill="hsl(98 62% 61%)"/><text x="633.004" y="101"></text></g>
<g class="frame"><title>task:assistantbench.improved.validation.17;task:fill
1 (0.14%)</title><rect x="648.362" y="88" width="2.151" height="17" rx="2" ry="2" fill="hsl(64 53% 63%)"/><text x="652.362" y="101"></text></g>
<g class="frame"><title>task:assistantbench.improved.validation.9
30 (4.12%)</title><rect x="650.513" y="106" width="64.527" height="17" rx="2" ry="2" fill="hsl(357 59% 65%)"/><text x="654.513" y="119">task:as.</text></g>
<g class="frame"><title>task:assistantbench.improved.validation.9;task:fill
14 (1.92%)</title><rect x="650.513" y="88" width="30.112" height="17" rx="2" ry="2" fill="hsl(64 53% 63%)"/><text x="654.513" y="101"></text></g>
<g class="frame"><title>task:assistantbench.improved.validation.9;task:click
13 (1.78%)</title><rect x="680.626" y="88" width="27.962" height="17" rx="2" ry="2" fill="hsl(98 62% 61%)"/><text x="684.626" y="101"></text></g>
<g class="frame"><title>task:assistantbench.improved.validation.9;task:click;task:light-repeat
5 (0.69%)</title><rect x="680.626" y="70" width="10.754" height="17" rx="2" ry="2" fill="hsl(188 67% 69%)"/><text x="684.626" y="83"></text></g>
<g class="frame"><title>task:assistantbench.improved.validation.9;task:click;task:same-action-window
5 (0.69%)</title><rect x="691.380" y="70" width="10.754" height="17" rx="2" ry="2" fill="hsl(127 49% 59%)"/><text x="695.380" y="83"></text></g>
<g class="frame"><title>task:assistantbench.improved.validation.9;task:click;task:single
3 (0.41%)</title><rect x="702.134" y="70" width="6.453" height="17" rx="2" ry="2" fill="hsl(98 46% 67%)"/><text x="706.134" y="83"></text></g>
<g class="frame"><title>task:assistantbench.improved.validation.9;task:go_back
3 (0.41%)</title><rect x="708.587" y="88" width="6.453" height="17" rx="2" ry="2" fill="hsl(205 58% 58%)"/><text x="712.587" y="101"></text></g>
<g class="frame"><title>task:visualwebarena.569
30 (4.12%)</title><rect x="715.040" y="106" width="64.527" height="17" rx="2" ry="2" fill="hsl(319 57% 62%)"/><text x="719.040" y="119">task:vi.</text></g>
<g class="frame"><title>task:visualwebarena.569;task:single
13 (1.78%)</title><rect x="715.040" y="88" width="27.962" height="17" rx="2" ry="2" fill="hsl(98 46% 67%)"/><text x="719.040" y="101"></text></g>
<g class="frame"><title>task:visualwebarena.569;task:single;task:ok
7 (0.96%)</title><rect x="715.040" y="70" width="15.056" height="17" rx="2" ry="2" fill="hsl(267 54% 61%)"/><text x="719.040" y="83"></text></g>
<g class="frame"><title>task:visualwebarena.569;task:single;task:error
6 (0.82%)</title><rect x="730.096" y="70" width="12.905" height="17" rx="2" ry="2" fill="hsl(70 54% 61%)"/><text x="734.096" y="83"></text></g>
<g class="frame"><title>task:visualwebarena.569;task:same-action-window
10 (1.37%)</title><rect x="743.001" y="88" width="21.509" height="17" rx="2" ry="2" fill="hsl(127 49% 59%)"/><text x="747.001" y="101"></text></g>
<g class="frame"><title>task:visualwebarena.569;task:same-action-window;task:error
5 (0.69%)</title><rect x="743.001" y="70" width="10.754" height="17" rx="2" ry="2" fill="hsl(70 54% 61%)"/><text x="747.001" y="83"></text></g>
<g class="frame"><title>task:visualwebarena.569;task:same-action-window;task:ok
5 (0.69%)</title><rect x="753.756" y="70" width="10.754" height="17" rx="2" ry="2" fill="hsl(267 54% 61%)"/><text x="757.756" y="83"></text></g>
<g class="frame"><title>task:visualwebarena.569;task:light-repeat
7 (0.96%)</title><rect x="764.510" y="88" width="15.056" height="17" rx="2" ry="2" fill="hsl(188 67% 69%)"/><text x="768.510" y="101"></text></g>
<g class="frame"><title>task:visualwebarena.76
30 (4.12%)</title><rect x="779.567" y="106" width="64.527" height="17" rx="2" ry="2" fill="hsl(193 59% 59%)"/><text x="783.567" y="119">task:vi.</text></g>
<g class="frame"><title>task:visualwebarena.76;task:same-action-run
24 (3.29%)</title><rect x="779.567" y="88" width="51.621" height="17" rx="2" ry="2" fill="hsl(19 64% 65%)"/><text x="783.567" y="101">task:.</text></g>
<g class="frame"><title>task:visualwebarena.76;task:single
5 (0.69%)</title><rect x="831.188" y="88" width="10.754" height="17" rx="2" ry="2" fill="hsl(98 46% 67%)"/><text x="835.188" y="101"></text></g>
<g class="frame"><title>task:visualwebarena.76;task:light-repeat
1 (0.14%)</title><rect x="841.942" y="88" width="2.151" height="17" rx="2" ry="2" fill="hsl(188 67% 69%)"/><text x="845.942" y="101"></text></g>
<g class="frame"><title>task:visualwebarena.88
30 (4.12%)</title><rect x="844.093" y="106" width="64.527" height="17" rx="2" ry="2" fill="hsl(150 65% 61%)"/><text x="848.093" y="119">task:vi.</text></g>
<g class="frame"><title>task:visualwebarena.88;task:same-action-run
20 (2.74%)</title><rect x="844.093" y="88" width="43.018" height="17" rx="2" ry="2" fill="hsl(19 64% 65%)"/><text x="848.093" y="101">task.</text></g>
<g class="frame"><title>task:visualwebarena.88;task:single
6 (0.82%)</title><rect x="887.111" y="88" width="12.905" height="17" rx="2" ry="2" fill="hsl(98 46% 67%)"/><text x="891.111" y="101"></text></g>
<g class="frame"><title>task:visualwebarena.88;task:light-repeat
4 (0.55%)</title><rect x="900.016" y="88" width="8.604" height="17" rx="2" ry="2" fill="hsl(188 67% 69%)"/><text x="904.016" y="101"></text></g>
<g class="frame"><title>task:webarena.723
30 (4.12%)</title><rect x="908.620" y="106" width="64.527" height="17" rx="2" ry="2" fill="hsl(36 59% 59%)"/><text x="912.620" y="119">task:we.</text></g>
<g class="frame"><title>task:webarena.723;task:same-action-run
19 (2.61%)</title><rect x="908.620" y="88" width="40.867" height="17" rx="2" ry="2" fill="hsl(19 64% 65%)"/><text x="912.620" y="101">tas.</text></g>
<g class="frame"><title>task:webarena.723;task:single
7 (0.96%)</title><rect x="949.487" y="88" width="15.056" height="17" rx="2" ry="2" fill="hsl(98 46% 67%)"/><text x="953.487" y="101"></text></g>
<g class="frame"><title>task:webarena.723;task:light-repeat
3 (0.41%)</title><rect x="964.543" y="88" width="6.453" height="17" rx="2" ry="2" fill="hsl(188 67% 69%)"/><text x="968.543" y="101"></text></g>
<g class="frame"><title>task:webarena.723;task:target-window
1 (0.14%)</title><rect x="970.996" y="88" width="2.151" height="17" rx="2" ry="2" fill="hsl(113 58% 58%)"/><text x="974.996" y="101"></text></g>
<g class="frame"><title>task:workarena.servicenow.dashboard-retrieve-catalog-and-max-order-apple-watch-l2
30 (4.12%)</title><rect x="973.147" y="106" width="64.527" height="17" rx="2" ry="2" fill="hsl(42 52% 62%)"/><text x="977.147" y="119">task:wo.</text></g>
<g class="frame"><title>task:workarena.servicenow.two-changes-wide-basic-uniform-risk-change-request-scheduling-l2
30 (4.12%)</title><rect x="1037.674" y="106" width="64.527" height="17" rx="2" ry="2" fill="hsl(355 51% 71%)"/><text x="1041.674" y="119">task:wo.</text></g>
<g class="frame"><title>task:workarena.servicenow.two-changes-wide-basic-uniform-risk-change-request-scheduling-l2;task:click
18 (2.47%)</title><rect x="1037.674" y="88" width="38.716" height="17" rx="2" ry="2" fill="hsl(98 62% 61%)"/><text x="1041.674" y="101">tas.</text></g>
<g class="frame"><title>task:workarena.servicenow.two-changes-wide-basic-uniform-risk-change-request-scheduling-l2;task:click;task:single
11 (1.51%)</title><rect x="1037.674" y="70" width="23.660" height="17" rx="2" ry="2" fill="hsl(98 46% 67%)"/><text x="1041.674" y="83"></text></g>
<g class="frame"><title>task:workarena.servicenow.two-changes-wide-basic-uniform-risk-change-request-scheduling-l2;task:click;task:light-repeat
5 (0.69%)</title><rect x="1061.333" y="70" width="10.754" height="17" rx="2" ry="2" fill="hsl(188 67% 69%)"/><text x="1065.333" y="83"></text></g>
<g class="frame"><title>task:workarena.servicenow.two-changes-wide-basic-uniform-risk-change-request-scheduling-l2;task:click;task:same-action-window
2 (0.27%)</title><rect x="1072.088" y="70" width="4.302" height="17" rx="2" ry="2" fill="hsl(127 49% 59%)"/><text x="1076.088" y="83"></text></g>
<g class="frame"><title>task:workarena.servicenow.two-changes-wide-basic-uniform-risk-change-request-scheduling-l2;task:fill
10 (1.37%)</title><rect x="1076.390" y="88" width="21.509" height="17" rx="2" ry="2" fill="hsl(64 53% 63%)"/><text x="1080.390" y="101"></text></g>
<g class="frame"><title>task:workarena.servicenow.two-changes-wide-basic-uniform-risk-change-request-scheduling-l2;task:press
1 (0.14%)</title><rect x="1097.898" y="88" width="2.151" height="17" rx="2" ry="2" fill="hsl(231 53% 67%)"/><text x="1101.898" y="101"></text></g>
<g class="frame"><title>task:workarena.servicenow.two-changes-wide-basic-uniform-risk-change-request-scheduling-l2;task:scroll
1 (0.14%)</title><rect x="1100.049" y="88" width="2.151" height="17" rx="2" ry="2" fill="hsl(153 47% 60%)"/><text x="1104.049" y="101"></text></g>
<g class="frame"><title>task:workarena.servicenow.two-changes-wide-basic-varied-risk-change-request-scheduling-l2
30 (4.12%)</title><rect x="1102.200" y="106" width="64.527" height="17" rx="2" ry="2" fill="hsl(237 59% 70%)"/><text x="1106.200" y="119">task:wo.</text></g>
<g class="frame"><title>task:workarena.servicenow.two-changes-wide-basic-varied-risk-change-request-scheduling-l2;task:same-action-run
24 (3.29%)</title><rect x="1102.200" y="88" width="51.621" height="17" rx="2" ry="2" fill="hsl(19 64% 65%)"/><text x="1106.200" y="101">task:.</text></g>
<g class="frame"><title>task:workarena.servicenow.two-changes-wide-basic-varied-risk-change-request-scheduling-l2;task:single
5 (0.69%)</title><rect x="1153.822" y="88" width="10.754" height="17" rx="2" ry="2" fill="hsl(98 46% 67%)"/><text x="1157.822" y="101"></text></g>
<g class="frame"><title>task:workarena.servicenow.two-changes-wide-basic-varied-risk-change-request-scheduling-l2;task:light-repeat
1 (0.14%)</title><rect x="1164.576" y="88" width="2.151" height="17" rx="2" ry="2" fill="hsl(188 67% 69%)"/><text x="1168.576" y="101"></text></g>
<g class="frame"><title>task:workarena.servicenow.two-changes-wide-priority-uniform-risk-change-request-scheduling-l2
30 (4.12%)</title><rect x="1166.727" y="106" width="64.527" height="17" rx="2" ry="2" fill="hsl(45 54% 58%)"/><text x="1170.727" y="119">task:wo.</text></g>
<g class="frame"><title>task:workarena.servicenow.two-changes-wide-priority-uniform-risk-change-request-scheduling-l2;task:click
21 (2.88%)</title><rect x="1166.727" y="88" width="45.169" height="17" rx="2" ry="2" fill="hsl(98 62% 61%)"/><text x="1170.727" y="101">task.</text></g>
<g class="frame"><title>task:workarena.servicenow.two-changes-wide-priority-uniform-risk-change-request-scheduling-l2;task:click;task:single
10 (1.37%)</title><rect x="1166.727" y="70" width="21.509" height="17" rx="2" ry="2" fill="hsl(98 46% 67%)"/><text x="1170.727" y="83"></text></g>
<g class="frame"><title>task:workarena.servicenow.two-changes-wide-priority-uniform-risk-change-request-scheduling-l2;task:click;task:light-repeat
6 (0.82%)</title><rect x="1188.236" y="70" width="12.905" height="17" rx="2" ry="2" fill="hsl(188 67% 69%)"/><text x="1192.236" y="83"></text></g>
<g class="frame"><title>task:workarena.servicenow.two-changes-wide-priority-uniform-risk-change-request-scheduling-l2;task:click;task:same-action-window
3 (0.41%)</title><rect x="1201.141" y="70" width="6.453" height="17" rx="2" ry="2" fill="hsl(127 49% 59%)"/><text x="1205.141" y="83"></text></g>
<g class="frame"><title>task:workarena.servicenow.two-changes-wide-priority-uniform-risk-change-request-scheduling-l2;task:click;task:same-action-run
1 (0.14%)</title><rect x="1207.594" y="70" width="2.151" height="17" rx="2" ry="2" fill="hsl(19 64% 65%)"/><text x="1211.594" y="83"></text></g>
<g class="frame"><title>task:workarena.servicenow.two-changes-wide-priority-uniform-risk-change-request-scheduling-l2;task:click;task:target-window
1 (0.14%)</title><rect x="1209.745" y="70" width="2.151" height="17" rx="2" ry="2" fill="hsl(113 58% 58%)"/><text x="1213.745" y="83"></text></g>
<g class="frame"><title>task:workarena.servicenow.two-changes-wide-priority-uniform-risk-change-request-scheduling-l2;task:fill
9 (1.23%)</title><rect x="1211.896" y="88" width="19.358" height="17" rx="2" ry="2" fill="hsl(64 53% 63%)"/><text x="1215.896" y="101"></text></g>
<g class="frame"><title>task:workarena.servicenow.two-changes-wide-schedule-tight-uniform-risk-change-request-scheduling-l2
30 (4.12%)</title><rect x="1231.254" y="106" width="64.527" height="17" rx="2" ry="2" fill="hsl(198 53% 61%)"/><text x="1235.254" y="119">task:wo.</text></g>
<g class="frame"><title>task:workarena.servicenow.two-changes-wide-schedule-tight-uniform-risk-change-request-scheduling-l2;task:click
22 (3.02%)</title><rect x="1231.254" y="88" width="47.320" height="17" rx="2" ry="2" fill="hsl(98 62% 61%)"/><text x="1235.254" y="101">task.</text></g>
<g class="frame"><title>task:workarena.servicenow.two-changes-wide-schedule-tight-uniform-risk-change-request-scheduling-l2;task:click;task:ok
17 (2.33%)</title><rect x="1231.254" y="70" width="36.565" height="17" rx="2" ry="2" fill="hsl(267 54% 61%)"/><text x="1235.254" y="83">tas.</text></g>
<g class="frame"><title>task:workarena.servicenow.two-changes-wide-schedule-tight-uniform-risk-change-request-scheduling-l2;task:click;task:error
5 (0.69%)</title><rect x="1267.819" y="70" width="10.754" height="17" rx="2" ry="2" fill="hsl(70 54% 61%)"/><text x="1271.819" y="83"></text></g>
<g class="frame"><title>task:workarena.servicenow.two-changes-wide-schedule-tight-uniform-risk-change-request-scheduling-l2;task:fill
8 (1.10%)</title><rect x="1278.573" y="88" width="17.207" height="17" rx="2" ry="2" fill="hsl(64 53% 63%)"/><text x="1282.573" y="101"></text></g>
<g class="frame"><title>task:workarena.servicenow.two-changes-wide-tight-priority-varied-risk-change-request-scheduling-l2
30 (4.12%)</title><rect x="1295.781" y="106" width="64.527" height="17" rx="2" ry="2" fill="hsl(168 67% 70%)"/><text x="1299.781" y="119">task:wo.</text></g>
<g class="frame"><title>task:workarena.servicenow.two-changes-wide-tight-priority-varied-risk-change-request-scheduling-l2;task:click
14 (1.92%)</title><rect x="1295.781" y="88" width="30.112" height="17" rx="2" ry="2" fill="hsl(98 62% 61%)"/><text x="1299.781" y="101"></text></g>
<g class="frame"><title>task:workarena.servicenow.two-changes-wide-tight-priority-varied-risk-change-request-scheduling-l2;task:click;task:ok
8 (1.10%)</title><rect x="1295.781" y="70" width="17.207" height="17" rx="2" ry="2" fill="hsl(267 54% 61%)"/><text x="1299.781" y="83"></text></g>
<g class="frame"><title>task:workarena.servicenow.two-changes-wide-tight-priority-varied-risk-change-request-scheduling-l2;task:click;task:error
6 (0.82%)</title><rect x="1312.988" y="70" width="12.905" height="17" rx="2" ry="2" fill="hsl(70 54% 61%)"/><text x="1316.988" y="83"></text></g>
<g class="frame"><title>task:workarena.servicenow.two-changes-wide-tight-priority-varied-risk-change-request-scheduling-l2;task:fill
13 (1.78%)</title><rect x="1325.893" y="88" width="27.962" height="17" rx="2" ry="2" fill="hsl(64 53% 63%)"/><text x="1329.893" y="101"></text></g>
<g class="frame"><title>task:workarena.servicenow.two-changes-wide-tight-priority-varied-risk-change-request-scheduling-l2;task:clear
3 (0.41%)</title><rect x="1353.855" y="88" width="6.453" height="17" rx="2" ry="2" fill="hsl(40 65% 63%)"/><text x="1357.855" y="101"></text></g>
<g class="frame"><title>task:assistantbench.improved.validation.10
22 (3.02%)</title><rect x="1360.307" y="106" width="47.320" height="17" rx="2" ry="2" fill="hsl(310 59% 59%)"/><text x="1364.307" y="119">task.</text></g>
<g class="frame"><title>task:assistantbench.improved.validation.10;task:click
12 (1.65%)</title><rect x="1360.307" y="88" width="25.811" height="17" rx="2" ry="2" fill="hsl(98 62% 61%)"/><text x="1364.307" y="101"></text></g>
<g class="frame"><title>task:assistantbench.improved.validation.10;task:fill
9 (1.23%)</title><rect x="1386.118" y="88" width="19.358" height="17" rx="2" ry="2" fill="hsl(64 53% 63%)"/><text x="1390.118" y="101"></text></g>
<g class="frame"><title>task:assistantbench.improved.validation.10;task:send_msg_to_user
1 (0.14%)</title><rect x="1405.476" y="88" width="2.151" height="17" rx="2" ry="2" fill="hsl(187 65% 65%)"/><text x="1409.476" y="101"></text></g>
<g class="frame"><title>task:assistantbench.improved.validation.16
21 (2.88%)</title><rect x="1407.627" y="106" width="45.169" height="17" rx="2" ry="2" fill="hsl(11 58% 64%)"/><text x="1411.627" y="119">task.</text></g>
<g class="frame"><title>task:assistantbench.improved.validation.16;task:single
12 (1.65%)</title><rect x="1407.627" y="88" width="25.811" height="17" rx="2" ry="2" fill="hsl(98 46% 67%)"/><text x="1411.627" y="101"></text></g>
<g class="frame"><title>task:assistantbench.improved.validation.16;task:same-action-run
8 (1.10%)</title><rect x="1433.438" y="88" width="17.207" height="17" rx="2" ry="2" fill="hsl(19 64% 65%)"/><text x="1437.438" y="101"></text></g>
<g class="frame"><title>task:assistantbench.improved.validation.16;task:light-repeat
1 (0.14%)</title><rect x="1450.645" y="88" width="2.151" height="17" rx="2" ry="2" fill="hsl(188 67% 69%)"/><text x="1454.645" y="101"></text></g>
<g class="frame"><title>task:visualwebarena.resized.569
13 (1.78%)</title><rect x="1452.796" y="106" width="27.962" height="17" rx="2" ry="2" fill="hsl(345 61% 68%)"/><text x="1456.796" y="119"></text></g>
<g class="frame"><title>task:visualwebarena.resized.569;task:loop-like
8 (1.10%)</title><rect x="1452.796" y="88" width="17.207" height="17" rx="2" ry="2" fill="hsl(341 47% 70%)"/><text x="1456.796" y="101"></text></g>
<g class="frame"><title>task:visualwebarena.resized.569;task:none
5 (0.69%)</title><rect x="1470.003" y="88" width="10.754" height="17" rx="2" ry="2" fill="hsl(338 67% 68%)"/><text x="1474.003" y="101"></text></g>
<g class="frame"><title>task:webarena.155
11 (1.51%)</title><rect x="1480.757" y="106" width="23.660" height="17" rx="2" ry="2" fill="hsl(194 60% 69%)"/><text x="1484.757" y="119"></text></g>
<g class="frame"><title>task:workarena.servicenow.two-changes-wide-priority-varied-risk-change-request-scheduling-l2
9 (1.23%)</title><rect x="1504.417" y="106" width="19.358" height="17" rx="2" ry="2" fill="hsl(182 52% 71%)"/><text x="1508.417" y="119"></text></g>
<g class="frame"><title>task:webarena.718
7 (0.96%)</title><rect x="1523.775" y="106" width="15.056" height="17" rx="2" ry="2" fill="hsl(162 50% 70%)"/><text x="1527.775" y="119"></text></g>
<g class="frame"><title>task:visualwebarena.resized.512
6 (0.82%)</title><rect x="1538.831" y="106" width="12.905" height="17" rx="2" ry="2" fill="hsl(115 59% 62%)"/><text x="1542.831" y="119"></text></g>
<g class="frame"><title>task:webarena.177
4 (0.55%)</title><rect x="1551.737" y="106" width="8.604" height="17" rx="2" ry="2" fill="hsl(18 53% 59%)"/><text x="1555.737" y="119"></text></g>
<g class="frame"><title>task:webarena.726
4 (0.55%)</title><rect x="1560.340" y="106" width="8.604" height="17" rx="2" ry="2" fill="hsl(34 65% 67%)"/><text x="1564.340" y="119"></text></g>
<g class="frame"><title>task:visualwebarena.512
3 (0.41%)</title><rect x="1568.944" y="106" width="6.453" height="17" rx="2" ry="2" fill="hsl(23 59% 59%)"/><text x="1572.944" y="119"></text></g>
<g class="frame"><title>task:webarena.24
2 (0.27%)</title><rect x="1575.396" y="106" width="4.302" height="17" rx="2" ry="2" fill="hsl(319 65% 59%)"/><text x="1579.396" y="119"></text></g>
<g class="frame"><title>task:visualwebarena.525
1 (0.14%)</title><rect x="1579.698" y="106" width="2.151" height="17" rx="2" ry="2" fill="hsl(246 58% 61%)"/><text x="1583.698" y="119"></text></g>
<g class="frame"><title>task:visualwebarena.resized.525
1 (0.14%)</title><rect x="1581.849" y="106" width="2.151" height="17" rx="2" ry="2" fill="hsl(201 50% 70%)"/><text x="1585.849" y="119"></text></g>
</svg>
