<svg xmlns="http://www.w3.org/2000/svg" width="1400" height="248" viewBox="0 0 1400 248" role="img" aria-label="Session Token Footprint">
<style>text{font-family:ui-monospace,SFMono-Regular,Menlo,Consolas,monospace;font-size:12px;fill:#1d2329}.title{font-size:18px;font-weight:700}.sub{font-size:12px;fill:#59636e}.frame{stroke:#fff;stroke-width:1}.label{pointer-events:none}</style>
<rect x="0" y="0" width="1400" height="248" fill="#f7f8f4"/>
<text class="title" x="16" y="26">Session Token Footprint</text>
<text class="sub" x="16" y="44">Prompt and LLM-call frames removed; width shows token mass aggregated by session tags.</text>
<rect class="frame" x="16.00" y="56.00" width="1368.00" height="23" fill="hsl(16 54% 69%)"><title>project:agentsight | 158799701 tokens | 100.0%</title></rect>
<clipPath id="clip0"><rect x="19.00" y="56.00" width="1362.00" height="23"/></clipPath>
<text class="label" clip-path="url(#clip0)" x="21.00" y="72.00">project:agentsight</text>
<rect class="frame" x="16.00" y="80.00" width="1151.21" height="23" fill="hsl(173 48% 75%)"><title>agent:claude | 133634924 tokens | 84.2%</title></rect>
<clipPath id="clip1"><rect x="19.00" y="80.00" width="1145.21" height="23"/></clipPath>
<text class="label" clip-path="url(#clip1)" x="21.00" y="96.00">agent:claude</text>
<rect class="frame" x="16.00" y="104.00" width="1147.63" height="23" fill="hsl(64 56% 63%)"><title>session:model | 133219008 tokens | 83.9%</title></rect>
<clipPath id="clip2"><rect x="19.00" y="104.00" width="1141.63" height="23"/></clipPath>
<text class="label" clip-path="url(#clip2)" x="21.00" y="120.00">session:model</text>
<rect class="frame" x="16.00" y="128.00" width="1147.63" height="23" fill="hsl(241 66% 61%)"><title>model:claude-fable-5 | 133219008 tokens | 83.9%</title></rect>
<clipPath id="clip3"><rect x="19.00" y="128.00" width="1141.63" height="23"/></clipPath>
<text class="label" clip-path="url(#clip3)" x="21.00" y="144.00">model:claude-fable-5</text>
<rect class="frame" x="16.00" y="152.00" width="1140.21" height="23" fill="hsl(3 59% 65%)"><title>kind:cache | 132357027 tokens | 83.3%</title></rect>
<clipPath id="clip4"><rect x="19.00" y="152.00" width="1134.21" height="23"/></clipPath>
<text class="label" clip-path="url(#clip4)" x="21.00" y="168.00">kind:cache</text>
<rect class="frame" x="1156.21" y="152.00" width="6.45" height="23" fill="hsl(128 46% 70%)"><title>kind:output | 748538 tokens | 0.5%</title></rect>
<rect class="frame" x="1162.65" y="152.00" width="0.98" height="23" fill="hsl(217 65% 74%)"><title>kind:input | 113443 tokens | 0.1%</title></rect>
<rect class="frame" x="1163.63" y="104.00" width="2.69" height="23" fill="hsl(117 56% 58%)"><title>session:claude | 311876 tokens | 0.2%</title></rect>
<rect class="frame" x="1163.63" y="128.00" width="2.69" height="23" fill="hsl(241 51% 68%)"><title>model:claude-opus-4-6 | 311876 tokens | 0.2%</title></rect>
<rect class="frame" x="1163.63" y="152.00" width="2.68" height="23" fill="hsl(3 59% 65%)"><title>kind:cache | 310919 tokens | 0.2%</title></rect>
<rect class="frame" x="1166.32" y="104.00" width="0.72" height="23" fill="hsl(87 60% 75%)"><title>session:debug | 83366 tokens | 0.1%</title></rect>
<rect class="frame" x="1166.32" y="128.00" width="0.72" height="23" fill="hsl(241 51% 68%)"><title>model:claude-opus-4-6 | 83366 tokens | 0.1%</title></rect>
<rect class="frame" x="1166.32" y="152.00" width="0.72" height="23" fill="hsl(3 59% 65%)"><title>kind:cache | 83162 tokens | 0.1%</title></rect>
<rect class="frame" x="1167.21" y="80.00" width="215.22" height="23" fill="hsl(18 61% 64%)"><title>agent:claude-subagent | 24982563 tokens | 15.7%</title></rect>
<clipPath id="clip5"><rect x="1170.21" y="80.00" width="209.22" height="23"/></clipPath>
<text class="label" clip-path="url(#clip5)" x="1172.21" y="96.00">agent:claude-subagent</text>
<rect class="frame" x="1167.21" y="104.00" width="147.30" height="23" fill="hsl(5 71% 73%)"><title>session:subagent | 17099211 tokens | 10.8%</title></rect>
<clipPath id="clip6"><rect x="1170.21" y="104.00" width="141.30" height="23"/></clipPath>
<text class="label" clip-path="url(#clip6)" x="1172.21" y="120.00">session:subagent</text>
<rect class="frame" x="1167.21" y="128.00" width="116.34" height="23" fill="hsl(102 69% 61%)"><title>model:claude-opus-4-8 | 13505368 tokens | 8.5%</title></rect>
<clipPath id="clip7"><rect x="1170.21" y="128.00" width="110.34" height="23"/></clipPath>
<text class="label" clip-path="url(#clip7)" x="1172.21" y="144.00">model:claude-opus-4-8</text>
<rect class="frame" x="1167.21" y="152.00" width="116.03" height="23" fill="hsl(3 59% 65%)"><title>kind:cache | 13469322 tokens | 8.5%</title></rect>
<clipPath id="clip8"><rect x="1170.21" y="152.00" width="110.03" height="23"/></clipPath>
<text class="label" clip-path="url(#clip8)" x="1172.21" y="168.00">kind:cache</text>
<rect class="frame" x="1283.56" y="128.00" width="30.96" height="23" fill="hsl(241 66% 61%)"><title>model:claude-fable-5 | 3593843 tokens | 2.3%</title></rect>
<rect class="frame" x="1283.56" y="152.00" width="30.60" height="23" fill="hsl(3 59% 65%)"><title>kind:cache | 3552412 tokens | 2.2%</title></rect>
<rect class="frame" x="1314.52" y="104.00" width="67.91" height="23" fill="hsl(64 56% 63%)"><title>session:model | 7883352 tokens | 5.0%</title></rect>
<clipPath id="clip9"><rect x="1317.52" y="104.00" width="61.91" height="23"/></clipPath>
<text class="label" clip-path="url(#clip9)" x="1319.52" y="120.00">session:model</text>
<rect class="frame" x="1314.52" y="128.00" width="67.91" height="23" fill="hsl(206 59% 65%)"><title>model:claude-haiku-4-5-20251001 | 7883352 tokens | 5.0%</title></rect>
<clipPath id="clip10"><rect x="1317.52" y="128.00" width="61.91" height="23"/></clipPath>
<text class="label" clip-path="url(#clip10)" x="1319.52" y="144.00">model:claude-haiku-4-5-20251001</text>
<rect class="frame" x="1314.52" y="152.00" width="67.71" height="23" fill="hsl(3 59% 65%)"><title>kind:cache | 7860426 tokens | 4.9%</title></rect>
<clipPath id="clip11"><rect x="1317.52" y="152.00" width="61.71" height="23"/></clipPath>
<text class="label" clip-path="url(#clip11)" x="1319.52" y="168.00">kind:cache</text>
<rect class="frame" x="1382.43" y="80.00" width="0.96" height="23" fill="hsl(245 55% 59%)"><title>agent:codex-subagent | 111265 tokens | 0.1%</title></rect>
<rect class="frame" x="1382.43" y="104.00" width="0.82" height="23" fill="hsl(33 60% 58%)"><title>session:flamegraph | 95013 tokens | 0.1%</title></rect>
<rect class="frame" x="1382.43" y="128.00" width="0.82" height="23" fill="hsl(73 55% 68%)"><title>model:gpt-5.5 | 95013 tokens | 0.1%</title></rect>
<rect class="frame" x="1382.43" y="152.00" width="0.82" height="23" fill="hsl(117 73% 58%)"><title>kind:estimate | 95013 tokens | 0.1%</title></rect>
<rect class="frame" x="1383.39" y="80.00" width="0.61" height="23" fill="hsl(196 72% 70%)"><title>agent:codex | 70949 tokens | 0.0%</title></rect>
<text class="sub" x="16" y="230">total: 158799701 tokens</text>
</svg>