<svg xmlns="http://www.w3.org/2000/svg" width="732" height="356" viewBox="0 0 732 356">
<style>text{font-family:Arial,sans-serif;font-size:12px;fill:#222}.small{font-size:10px}.title{font-size:16px;font-weight:700}.axis{stroke:#333;stroke-width:1}.grid{stroke:#ddd;stroke-width:1}.label{font-size:11px}</style>
<text class="title" x="24" y="28">Metric heatmap: accuracy, work, and fragmentation</text>
<text class="small" x="154" y="44">AP</text>
<text class="small" x="246" y="44">R@30%</text>
<text class="small" x="338" y="44">P@5 recall</text>
<text class="small" x="430" y="44">1-Work@5</text>
<text class="small" x="522" y="44">1-WTFP</text>
<text class="small" x="614" y="44">1-logGroups</text>
<text class="small" x="18" y="76">Flat</text>
<rect x="150" y="56" width="89" height="27" fill="rgb(213,216,211)" stroke="#fff"/>
<text class="small" x="158" y="75">0.1678</text>
<rect x="242" y="56" width="89" height="27" fill="rgb(245,235,240)" stroke="#fff"/>
<text class="small" x="250" y="75">0</text>
<rect x="334" y="56" width="89" height="27" fill="rgb(60,125,70)" stroke="#fff"/>
<text class="small" x="342" y="75">1</text>
<rect x="426" y="56" width="89" height="27" fill="rgb(245,235,240)" stroke="#fff"/>
<text class="small" x="434" y="75">1</text>
<rect x="518" y="56" width="89" height="27" fill="rgb(245,235,240)" stroke="#fff"/>
<text class="small" x="526" y="75">1</text>
<rect x="610" y="56" width="89" height="27" fill="rgb(82,138,90)" stroke="#fff"/>
<text class="small" x="618" y="75">1</text>
<text class="small" x="18" y="106">Fixed-session</text>
<rect x="150" y="86" width="89" height="27" fill="rgb(180,196,180)" stroke="#fff"/>
<text class="small" x="158" y="105">0.3476</text>
<rect x="242" y="86" width="89" height="27" fill="rgb(179,195,179)" stroke="#fff"/>
<text class="small" x="250" y="105">0.3559</text>
<rect x="334" y="86" width="89" height="27" fill="rgb(240,232,236)" stroke="#fff"/>
<text class="small" x="342" y="105">0.0233</text>
<rect x="426" y="86" width="89" height="27" fill="rgb(63,126,72)" stroke="#fff"/>
<text class="small" x="434" y="105">0.0163</text>
<rect x="518" y="86" width="89" height="27" fill="rgb(60,125,70)" stroke="#fff"/>
<text class="small" x="526" y="105">0.0044</text>
<rect x="610" y="86" width="89" height="27" fill="rgb(245,235,240)" stroke="#fff"/>
<text class="small" x="618" y="105">285</text>
<text class="small" x="18" y="136">Dataset-native</text>
<rect x="150" y="116" width="89" height="27" fill="rgb(178,195,179)" stroke="#fff"/>
<text class="small" x="158" y="135">0.3572</text>
<rect x="242" y="116" width="89" height="27" fill="rgb(182,197,182)" stroke="#fff"/>
<text class="small" x="250" y="135">0.3377</text>
<rect x="334" y="116" width="89" height="27" fill="rgb(84,139,92)" stroke="#fff"/>
<text class="small" x="342" y="135">0.8665</text>
<rect x="426" y="116" width="89" height="27" fill="rgb(217,218,215)" stroke="#fff"/>
<text class="small" x="434" y="135">0.8539</text>
<rect x="518" y="116" width="89" height="27" fill="rgb(70,131,79)" stroke="#fff"/>
<text class="small" x="526" y="135">0.0582</text>
<rect x="610" y="116" width="89" height="27" fill="rgb(129,166,134)" stroke="#fff"/>
<text class="small" x="618" y="135">7.5</text>
<text class="small" x="18" y="166">Raw-action</text>
<rect x="150" y="146" width="89" height="27" fill="rgb(194,204,193)" stroke="#fff"/>
<text class="small" x="158" y="165">0.2744</text>
<rect x="242" y="146" width="89" height="27" fill="rgb(183,198,183)" stroke="#fff"/>
<text class="small" x="250" y="165">0.3325</text>
<rect x="334" y="146" width="89" height="27" fill="rgb(199,208,198)" stroke="#fff"/>
<text class="small" x="342" y="165">0.2442</text>
<rect x="426" y="146" width="89" height="27" fill="rgb(87,141,95)" stroke="#fff"/>
<text class="small" x="434" y="165">0.1507</text>
<rect x="518" y="146" width="89" height="27" fill="rgb(66,129,76)" stroke="#fff"/>
<text class="small" x="526" y="165">0.0374</text>
<rect x="610" y="146" width="89" height="27" fill="rgb(165,187,167)" stroke="#fff"/>
<text class="small" x="618" y="165">24.5</text>
<text class="small" x="18" y="196">Op-stack width</text>
<rect x="150" y="176" width="89" height="27" fill="rgb(215,217,212)" stroke="#fff"/>
<text class="small" x="158" y="195">0.161</text>
<rect x="242" y="176" width="89" height="27" fill="rgb(182,197,182)" stroke="#fff"/>
<text class="small" x="250" y="195">0.3372</text>
<rect x="334" y="176" width="89" height="27" fill="rgb(157,182,159)" stroke="#fff"/>
<text class="small" x="342" y="195">0.4746</text>
<rect x="426" y="176" width="89" height="27" fill="rgb(160,184,162)" stroke="#fff"/>
<text class="small" x="434" y="195">0.5424</text>
<rect x="518" y="176" width="89" height="27" fill="rgb(91,143,98)" stroke="#fff"/>
<text class="small" x="526" y="195">0.1694</text>
<rect x="610" y="176" width="89" height="27" fill="rgb(225,223,222)" stroke="#fff"/>
<text class="small" x="618" y="195">157.5</text>
<text class="small" x="18" y="226">Op-stack query</text>
<rect x="150" y="206" width="89" height="27" fill="rgb(187,200,187)" stroke="#fff"/>
<text class="small" x="158" y="225">0.3117</text>
<rect x="242" y="206" width="89" height="27" fill="rgb(172,192,173)" stroke="#fff"/>
<text class="small" x="250" y="225">0.39</text>
<rect x="334" y="206" width="89" height="27" fill="rgb(210,214,208)" stroke="#fff"/>
<text class="small" x="342" y="225">0.188</text>
<rect x="426" y="206" width="89" height="27" fill="rgb(77,135,85)" stroke="#fff"/>
<text class="small" x="434" y="225">0.0937</text>
<rect x="518" y="206" width="89" height="27" fill="rgb(66,129,76)" stroke="#fff"/>
<text class="small" x="526" y="225">0.0378</text>
<rect x="610" y="206" width="89" height="27" fill="rgb(225,223,222)" stroke="#fff"/>
<text class="small" x="618" y="225">157.5</text>
<text class="small" x="18" y="256">Op-stack oracle</text>
<rect x="150" y="236" width="89" height="27" fill="rgb(134,169,138)" stroke="#fff"/>
<text class="small" x="158" y="255">0.5993</text>
<rect x="242" y="236" width="89" height="27" fill="rgb(140,172,144)" stroke="#fff"/>
<text class="small" x="250" y="255">0.564</text>
<rect x="334" y="236" width="89" height="27" fill="rgb(189,201,188)" stroke="#fff"/>
<text class="small" x="342" y="255">0.3004</text>
<rect x="426" y="236" width="89" height="27" fill="rgb(68,129,77)" stroke="#fff"/>
<text class="small" x="434" y="255">0.0441</text>
<rect x="518" y="236" width="89" height="27" fill="rgb(62,126,72)" stroke="#fff"/>
<text class="small" x="526" y="255">0.0122</text>
<rect x="610" y="236" width="89" height="27" fill="rgb(225,223,222)" stroke="#fff"/>
<text class="small" x="618" y="255">157.5</text>
<text class="small" x="18" y="286">Label drilldown</text>
<rect x="150" y="266" width="89" height="27" fill="rgb(60,125,70)" stroke="#fff"/>
<text class="small" x="158" y="285">1</text>
<rect x="242" y="266" width="89" height="27" fill="rgb(60,125,70)" stroke="#fff"/>
<text class="small" x="250" y="285">1</text>
<rect x="334" y="266" width="89" height="27" fill="rgb(120,161,126)" stroke="#fff"/>
<text class="small" x="342" y="285">0.6703</text>
<rect x="426" y="266" width="89" height="27" fill="rgb(81,137,89)" stroke="#fff"/>
<text class="small" x="434" y="285">0.115</text>
<rect x="518" y="266" width="89" height="27" fill="rgb(66,129,76)" stroke="#fff"/>
<text class="small" x="526" y="285">0.0377</text>
<rect x="610" y="266" width="89" height="27" fill="rgb(206,211,204)" stroke="#fff"/>
<text class="small" x="618" y="285">86.5</text>
</svg>
